<svg width="16" height="16" version="1.1" viewBox="0 0 16 16" xmlns="http://www.w3.org/2000/svg">
<path d="m1 1v4h2v-2h2v-2zm10 0v2h2v2h2v-4zm-10 10v4h4v-2h-2v-2zm12 0v2h-2v2h4v-4z" fill="#fc7f7f"/>
<g transform="matrix(.71419 0 0 .71551 2.2865 2.2838)" fill="none" stroke="#fc7f7f">
<circle cx="8" cy="8" r="6" fill="none" stroke-linecap="round" stroke-linejoin="round" stroke-width="2.0004"/>
<g transform="translate(0,-1036.4)" stroke-width="1.5">
<path d="m2 1044.4c4.5932 1.582 8.3985 1.0627 12 0"/>
<path d="m8 1038.4c-3 4-3 8 0 12"/>
<path d="m8 1038.4c3 4 3 8 0 12"/>
</g>
</g>
</svg>
